<svg xmlns="http://www.w3.org/2000/svg" viewBox="0 0 1200 675">
  <defs>
    <linearGradient id="bg" x1="0" x2="1">
      <stop offset="0" stop-color="#050915"/>
      <stop offset=".45" stop-color="#07234e"/>
      <stop offset="1" stop-color="#7c0d70"/>
    </linearGradient>
    <filter id="soft">
      <feGaussianBlur stdDeviation="5"/>
    </filter>
  </defs>
  <rect width="1200" height="675" fill="url(#bg)"/>
  <circle cx="990" cy="95" r="180" fill="#ff2fc0" opacity=".35" filter="url(#soft)"/>
  <circle cx="260" cy="470" r="210" fill="#00d9ff" opacity=".25" filter="url(#soft)"/>
  <g stroke="#0ae5ff" stroke-width="6" fill="#151a25">
    <rect x="470" y="174" width="220" height="162" rx="10"/>
    <rect x="506" y="208" width="148" height="70" rx="8" fill="#08101c"/>
    <rect x="520" y="358" width="170" height="42" rx="6"/>
  </g>
  <g fill="#0f1420" stroke="#ff4ed9" stroke-width="5">
    <rect x="162" y="402" width="230" height="92" rx="12"/>
    <rect x="770" y="380" width="240" height="110" rx="12"/>
    <rect x="330" y="112" width="160" height="96" rx="10"/>
    <rect x="704" y="130" width="250" height="74" rx="10"/>
  </g>
  <g fill="#eaf7ff" opacity=".85">
    <rect x="194" y="430" width="42" height="10" rx="4"/>
    <rect x="252" y="430" width="42" height="10" rx="4"/>
    <rect x="312" y="430" width="42" height="10" rx="4"/>
    <circle cx="820" cy="428" r="15"/>
    <circle cx="870" cy="428" r="15"/>
    <circle cx="920" cy="428" r="15"/>
  </g>
  <text x="90" y="590" fill="#ffffff" font-family="Arial, sans-serif" font-size="54" font-weight="800">UNITY WEBGL TEST BENCH</text>
</svg>
